<?xml version="1.0" encoding="UTF-8"?>
<svg width="371" height="479" viewBox="0 0 321 479" version="1.1" xmlns="http://www.w3.org/2000/svg" preserveAspectRatio="none">
 <path style="fill-opacity:1;" d="m64.8 479c8.25-2.45 12.5-4.68 16.8-8.89 5.47-5.35 6.66-9.41 4.57-15.6-4.5-13.3-12.5-21.9-24.4-26.1-2.71-0.954-5.2-2.01-5.54-2.35-0.592-0.592 13.5-27.7 28.2-54.2 14.9-26.9 30.7-55.2 33.4-59.5 1.51-2.48 4.65-7.78 6.97-11.8 3.12-5.38 4.67-7.17 5.91-6.82 2.4 0.681 11.9 2.38 17.2 3.08 3.89 0.511 4.85 0.267 6.66-1.68 2.97-3.2 25.1-38.2 27-42.5 2.39-5.71 1.88-14.6-1.17-20.9-2.86-5.85-8.98-11.7-14.2-13.6-1.83-0.66-3.32-1.7-3.32-2.3s1.35-3.23 3-5.83 3-5.14 3-5.65 1.91-0.0483 4.25 1.01c6.65 3.02 12.3 2.56 20.6-1.67l7.19-3.64 3.91 3.14c4.33 3.48 5.55 3.82 6.35 1.75 0.308-0.804 2.78-1.7 5.82-2.12 17.3-2.37 39.6-9.46 51.2-16.2 8.11-4.75 15.1-11.4 17.7-16.8 2.73-5.64 3.97-18.1 2.86-29-1.99-19.6-13-55.2-19.5-63.2-5.92-7.22-15.4-12.3-23-12.3-4.44 0-8.13-1.79-8.78-4.25-0.379-1.45-1.1-1.86-2.58-1.47-3.37 0.882-2.42-1.86 1.43-4.14 7.22-4.26 9.6-13.2 5.36-20.1-1.63-2.66-2.1-4.88-1.94-9.24 0.609-17.5-16.7-30.7-31.1-23.8-2.28 1.1-5.74 2.03-7.7 2.08-4.82 0.103-10.6 2.28-10.6 4.01 0 0.776 0.675 1.24 1.5 1.02 0.825-0.214 3.77-0.599 6.54-0.856 8.48-0.787 19.9 6.08 23.6 14.2 2.09 4.6 2.21 5.52 1.01 7.41-0.71 1.12-1.2 1.12-2.98 0.0095-1.17-0.733-2.13-1.83-2.13-2.44s-1.32-2.93-2.93-5.15c-4.11-5.67-10.2-7.93-16.8-6.27-3.99 1-5.55 0.958-9.07-0.273-3.91-1.37-4.25-1.35-4.25 0.207 0 1.19-1.45 2.07-4.88 2.95-5.38 1.38-7.49 3.27-11.6 10.4-2.24 3.91-3.12 4.65-4.92 4.2-1.78-0.446-2.63 0.229-4.51 3.57-3.04 5.42-3.12 10.1-0.224 14.1 1.26 1.7 2.13 3.19 1.95 3.31s-2.47 1.28-5.08 2.58c-5.83 2.9-15.1 12.5-17.8 18.3-3.59 7.92-1.83 20.4 2.39 16.9 0.881-0.731 2.07-3.08 2.65-5.22l1.05-3.89 3.14 1.62c2.39 1.23 5.01 1.51 11 1.17 7.08-0.41 8.92-1 19.6-6.29 9.36-4.65 13-5.93 17.8-6.28 6.38-0.472 8.69-1.54 7.88-3.65-0.274-0.714 0.217-1.57 1.09-1.91 2.04-0.783 3.55 2.97 3.25 8.09-0.186 3.15 0.12 3.81 1.9 4.06 1.45 0.208 2.29-0.35 2.66-1.77 0.595-2.27-0.913-8.82-2.47-10.7-0.697-0.856 0.206-2.34 3.1-5.1 2.25-2.14 4.09-4.67 4.09-5.63 0-1 0.531-1.52 1.25-1.22 0.688 0.285 2.94 1.07 5 1.74s3.75 1.54 3.75 1.93 1.14 2.39 2.54 4.45c2.22 3.27 2.41 4.16 1.47 6.99-1.97 5.96-7.07 9.28-16.3 10.6-5.92 0.837-8.8 2.25-7.42 3.63 0.383 0.383 4.44 0.893 9.01 1.13 12.1 0.633 16.1-1.92 19.1-12 0.985-3.34 1.86-4.4 4.15-5.05 3.86-1.09 8.79-0.135 14.3 2.77 6.16 3.22 8.19 5.05 12.4 11.2 9.85 14.3 17.8 58.9 13.2 74.6-4.41 15.2-30.5 31.1-62.6 38.1-10.5 2.31-11 2.29-13.1-0.518-2.12-2.8-4.52-13.9-3.55-16.4 0.803-2.09 6.98-2.18 8.69-0.122 1.74 2.09 3.75 1.87 4.5-0.498 0.349-1.1 1.84-2.26 3.32-2.59 13.4-2.95 28.4-8.6 34.5-13 3.51-2.54 4.66-4.15 5.57-7.75 1.77-7.01 1.42-11.3-2.44-30.4-1.97-9.74-3.79-21.3-4.06-25.7-0.699-11.6-0.981-12.5-3.88-12.5-1.36 0-2.53 0.562-2.59 1.25-0.455 5.13 0.562 17.2 2.3 27.2 2.27 13.2 2.69 29.3 0.874 33.9-1.22 3.1-2.73 4.43-9.87 8.69l-4.4 2.62-5.37-5c-9.67-9-19.3-27.1-24.8-46.8-5.83-20.7-10.1-30.5-13.1-30.5-2.67 0-2.44 2.91 0.995 12.5 1.48 4.12 3.93 12.9 5.46 19.5 5.9 25.5 13.9 39.1 28.9 49l4.28 2.83-4.33 2.28c-6.69 3.52-11.7 4.71-13.5 3.21-0.829-0.688-3.1-4.43-5.05-8.31s-6.7-12.4-10.6-18.9c-10.3-17.4-12.1-23.1-12.2-39.1-0.0861-11.2-0.327-13-1.74-13.3-1.33-0.256-1.79 0.97-2.43 6.49-1.2 10.2-0.686 25.5 1.09 32.6 2.23 8.83 8.05 20.5 16.4 32.9 3.94 5.85 7.16 10.9 7.16 11.2s-2.36 0.697-5.25 0.863l-5.25 0.302-0.315 3.83c-0.259 3.15-0.616 3.71-2 3.13-0.927-0.388-3.03-1.2-4.68-1.81s-3.17-1.21-3.37-1.33c-0.204-0.124 0.808-2.24 2.25-4.7 2.87-4.89 3.27-7.57 1.42-9.42-2.76-2.76-4.77-1.29-7.94 5.8-2.84 6.36-3.48 7.09-6.95 8.03-2.1 0.566-5.18 2.18-6.85 3.58-3.48 2.93-5.73 9.59-4.32 12.8 0.819 1.84 1.2 1.53 3.78-3.06 4.82-8.57 9.83-9.9 20.9-5.52 2.92 1.16 4.31 1.27 5.64 0.439 1.58-0.989 1.84-0.521 2.47 4.59 0.387 3.13 1.18 6.27 1.77 6.98 1.83 2.22-0.567 3.31-8.63 3.92-6.61 0.5-8.79 0.202-16.2-2.2-8.83-2.87-10.7-2.77-8.7 0.475 0.976 1.56 0.68 3.01-1.67 8.2-1.57 3.47-3.12 7.09-3.44 8.06-0.389 1.17-1.62 1.75-3.69 1.75-2.42 0-3.03 0.387-2.77 1.75 0.247 1.28 1.67 1.91 5.34 2.36 11.9 1.45 19.5 9.26 19.5 20 0 3.16-0.467 7.01-1.04 8.55-0.571 1.55-6.08 11.3-12.2 21.6l-11.2 18.8-4-0.547c-7.73-1.06-11.5-2.57-11.5-4.6 0-2.76-3.25-4.26-5.56-2.57-1.58 1.15-2.29 1.04-5.06-0.773-3.59-2.36-6.38-6.45-6.38-9.38 0-2.08 3.58-11.4 7.76-20.3 4-8.45 10.8-18.7 16.4-24.6 3.22-3.41 4.85-5.9 4.47-6.88-2.34-6.09-16.4 7.13-23.9 22.5-5.55 11.4-11.8 29.2-11.8 33.9 0 4.58 3.36 10.1 7.92 13.1l3.82 2.49-15.6 26.7c-8.59 14.7-18.8 32.5-22.8 39.5-11.9 21.3-21.2 38.1-29.2 52.7-5.32 9.7-8.31 14.1-9.97 14.8-1.91 0.725-2.27 1.43-1.85 3.61 0.33 1.73-0.353 4.42-1.89 7.45-1.32 2.61-2.4 5.38-2.4 6.16 0 1.19-2.5 1.33-15.2 0.903-8.39-0.284-15.4-0.68-15.7-0.88-0.823-0.728 3.51-4.64 7.26-6.55 2.12-1.08 7.07-2.78 11-3.78 7.65-1.94 9.14-3.8 4.38-5.47-1.87-0.659-5.03-0.586-9.76 0.224-13.1 2.25-19.6 7-20.7 15.1-0.409 3.05 0.236 5.42 3.1 11.4 5.7 11.9 16.6 20.2 32.8 25.2 7.25 2.22 23.1 2.83 28.8 1.12zm-11-17.1c-2.29-4.4-4.79-8.71-5.56-9.58s-1.4-1.94-1.4-2.39c0-1.27 11.6 0.0266 21.7 2.43 7.22 1.71 9.34 2.62 9.84 4.18 1.09 3.44-0.444 6.76-4.31 9.31-3.98 2.63-14.3 5.75-15.4 4.68-0.381-0.354-2.56-4.24-4.85-8.64zm-16.3 8.02c-12.9-2.73-22.9-9-27.2-17-1.69-3.13-1.74-3.71-0.435-4.54 2.08-1.31 29-1.27 29 0.044 0 0.562 1.12 1.53 2.49 2.15 1.68 0.765 4.13 4.33 7.54 11l5.06 9.85-4.79-0.0174c-2.64-0.01-7.87-0.669-11.6-1.47zm17.7-24.7-9.18-1.17 2.94-5.83c1.62-3.2 3.4-5.83 3.97-5.83 3.28 0 19.9 12.5 19.9 14.9 0 0.432-1.91 0.393-4.25-0.0868-2.34-0.48-8.38-1.4-13.4-2.04zm92.7-369c0-2.46 16-17.9 17-16.4 1.21 1.96 4.49 0.759 4.85-1.78 0.199-1.4 1.37-2.69 3-3.3 1.47-0.552 4.5-2.78 6.72-4.96l4.05-3.95 2.22 6.91c1.22 3.8 3.36 8.58 4.75 10.6 1.39 2.05 2.39 3.8 2.23 3.91-0.165 0.101-2.93 0.709-6.15 1.35s-9.74 2.98-14.5 5.18c-7.73 3.59-9.47 4.02-16.4 4.03-6.54 0.0117-7.75-0.244-7.75-1.64zm48.6-14.3c-3.33-3.68-6.74-16.9-7.32-28.3l-0.54-10.8h7.71c4.24 0 8.62 0.488 9.74 1.09 3.53 1.89 5.97 8.99 5.23 15.3-0.805 6.85-0.148 9.54 3.22 13.2l2.65 2.86-2.88 2.4c-3.87 3.22-10.3 6.17-13.5 6.2-1.43 0.0121-3.38-0.841-4.33-1.9zm24.7-13.6c-1.8-1.8-3.28-4.3-3.28-5.55 0-2.54 2.63-5.93 4.6-5.93 0.709 0 1.92-0.901 2.69-2 1.19-1.7 1.84-1.85 4.36-0.971 3.72 1.3 6.35 5.67 6.35 10.5 0 5.14-2.2 7.31-7.32 7.24-3.28-0.0453-4.79-0.724-7.4-3.34zm-56.8-1.43-1.65-4.96 6.82-6.41c8.4-7.91 13.3-12 13.7-11.5 0.162 0.206 0.0905 3.67-0.159 7.69-0.397 6.41-0.727 7.42-2.66 8.16-1.21 0.462-3.02 2.12-4.01 3.68-2.93 4.62-6.79 8.34-8.65 8.34-1.19 0-2.25-1.56-3.38-4.96zm65.9-19c-1.84 0-2.42-0.54-2.43-2.25-0.0172-3.96-4.61-12.3-8.59-15.6-2.72-2.24-3.34-3.18-2.1-3.18 5.3 0 15 7.11 17.3 12.7 1.94 4.65 1.81 9.69-0.231 8.9-0.87-0.334-2.67-0.607-4-0.607zm-96 421c3.59-4.71 9.42-22 20.6-61.2 9.32-32.6 17-68.2 17-79.1 4e-3 -5.34-2.16-7.44-5.02-4.86-1.09 0.986-1.98 2.65-1.98 3.7 0 1.94-3.27 19-5.02 26.3-0.533 2.2-2.56 10.8-4.49 19-7.78 33.1-18.3 69.5-26.3 91.4-1.1 2.99-1.76 6.02-1.49 6.75 0.898 2.34 4.12 1.41 6.67-1.93zm22.7-2.48c11.2-10.1 26.4-39.7 37.5-72.9 5.31-15.9 6.48-25.1 5.63-44.3-0.373-8.38-0.206-13.4 0.473-14.2 0.891-1.09 2.76-7 8.41-26.5 1.01-3.5 2.84-4.41 2.84-1.41 0 6.98 8.77 31.9 15.5 44.1 3.82 6.91 7.27 10.9 21.3 24.9 26.5 26.3 43.1 46.7 50.5 62.1 4.15 8.54 6.16 11.1 8.76 11.1 3.54 0 2.35-6.95-2.97-17.3-9.33-18.2-29.7-43.1-53-64.9-14-13-18.2-19-26.2-36.8-4.16-9.25-9.68-24.8-11.2-31.8-1.21-5.39 19.3-33.1 25.6-34.7l2.2-0.552 0.0173 21.8c0.0134 16.8 0.437 24.1 1.86 31.8 2.18 11.8 3.9 15.6 8.62 18.7 4.67 3.13 31.4 34.8 39.5 46.8 11 16.4 19.4 35.5 22.6 51.8 1.38 7.04 3.22 9.36 5.55 7.02 1.32-1.32 1.2-2.73-1.07-12.4-3.41-14.5-5.85-21.8-11.6-34.7-10.4-23.2-29.3-47-50.3-63.5-2.49-1.95-3.16-3.58-4.69-11.5-4.14-21.3-5.52-56-2.48-62.2 0.812-1.67 1.79-3.93 2.17-5.03 0.483-1.4 1.07 0.157 1.95 5.16 1.89 10.7 4.28 17 8 20.9 3.15 3.34 3.67 3.53 9.16 3.32 3.2-0.122 6.27-0.0446 6.82 0.172 1.87 0.738 13.2-4.08 15.9-6.74 5.26-5.26 4.76-8.02-4.98-27.3-3.47-6.88-6.59-14.3-6.94-16.5-1.04-6.44-1.49-7.46-3.28-7.32-5.28 0.425-6.15-0.126-7.29-4.65-1.42-5.66-3.37-7.49-5.59-5.27-1.45 1.45-1.4 1.95 0.597 5.78 1.2 2.31 2.05 4.3 1.89 4.42-0.163 0.127-2.22 0.703-4.58 1.28l-4.28 1.05-2.48-4.9c-2.6-5.13-3.04-5.45-5.4-3.95-1.26 0.797-1.22 1.65 0.29 6.45 0.959 3.04 2.18 5.8 2.72 6.13 0.537 0.332 0.723 1.01 0.413 1.51-0.32 0.518-1.42 0.38-2.55-0.319-3.01-1.87-4.02 0.607-2.17 5.31 2 5.1 1.19 7.66-4.71 14.7-3.8 4.55-6.2 6.41-10.2 7.94-3.89 1.48-5.78 2.91-7.29 5.51-1.12 1.93-4.7 6.49-7.95 10.1-7.48 8.38-13 16.4-16.8 24.4-3.1 6.54-7.78 22.1-7.78 26 0 1.22-0.682 4.23-1.52 6.69-0.834 2.46-1.74 8.66-2.01 13.8-2.23 41.8-21.3 94.8-42.8 119-3.93 4.46-3.85 5.53 0.402 5.53 1.99 0 4.27-1.21 7.06-3.73zm111-191c-3.61-3.61-6.71-11.9-9.28-24.9-2.27-11.4-2.34-12.6-0.892-14.2 0.873-0.964 1.93-1.75 2.35-1.75s1.04 3.49 1.39 7.75c1.04 12.9 2.81 20.3 6.65 28 3.7 7.36 3.63 9.02-0.213 5.18zm11.4-1.15c-3.9-4.24-8.35-12.2-10.3-18.5-2.58-8.36-5.31-24.3-4.3-25.2 1.49-1.33 7.58-2.99 11-2.99 2.92 0 3.35 0.326 3.35 2.53 0 2.64 3.09 12.8 5.49 18 3.77 8.21 7.51 18.6 7.51 20.8 0 3-5.12 7.67-8.4 7.67-1.24 0-3.18-1.01-4.32-2.25zm-73.3 179c14.8-5.62 26-6.31 35-2.16 3.19 1.47 4.99 1.79 6.25 1.12 5.17-2.77-0.419-7.25-13.5-10.8-7.81-2.14-21.6-0.894-31.7 2.88-6.36 2.36-10.2 3.16-15.2 3.19-8.95 0.0451-8.76 1.76 0.518 4.65 10.8 3.36 12.6 3.47 18.7 1.16zm-98.4-9.34c1.64-4.27-3.52-6.43-17.3-7.28-9.38-0.573-20.8 1.46-22.4 3.98-1.7 2.7 0.55 3.23 14.2 3.36 7.69 0.0734 16.5 0.443 19.5 0.822 4.52 0.565 5.62 0.405 6.12-0.883zm41-147c7.6-3.54 12.1-10.2 14.8-22 2.16-9.31 2.05-14.3-0.335-15.5-2.61-1.4-3.56 0.0829-5.06 7.92-0.681 3.56-2.06 8.09-3.07 10.1-2.16 4.23-9.23 10.9-11.7 11.1-6.53 0.43-9.3-1.81-8.59-6.95 1.1-8.03 2.64-14.8 3.98-17.4 1.52-2.97 6.05-5.77 9.32-5.77 2.42 0 2.9-3.74 0.591-4.62-4.74-1.82-14.7 5.38-18.1 13.1-2.46 5.57-5.68 19.8-4.92 21.7 0.89 2.32 14.5 10.8 17.3 10.8 0.349-5e-3 2.94-1.08 5.75-2.39zm38.6-34.7c0.796-1.31 5.38-8.56 10.2-16.1 8.94-14 9.53-15.9 5.92-18.9-1.37-1.13-2-0.829-4.5 2.16-3.64 4.35-14.8 27.2-14.8 30.2 8e-3 1.24 0.409 2.87 0.891 3.63 0.692 1.09 1.18 0.884 2.32-1zm-11.4-123c-0.86-4.47-6.94-5.97-34-8.41-12.9-1.16-22.1-3.91-27.1-8.12l-3.17-2.64 1.05-8.44c2.02-16.3 7.77-24.2 29-40 7.88-5.86 12.4-9.86 12.4-11 0-2.72-2.48-2.19-7.44 1.59-2.45 1.87-7.97 5.32-12.3 7.67-8.41 4.6-22.8 18-27.6 25.5-5.94 9.5-5.82 18 0.385 27.3 7.7 11.5 15.7 14.5 43.3 16 9.95 0.557 19.8 1.31 21.9 1.67 3.38 0.576 3.81 0.431 3.5-1.19z"/>
</svg>
