<?xml version="1.0" encoding="UTF-8"?>
<svg width="420" height="240" version="1.1" viewBox="0 0 420 240" xmlns="http://www.w3.org/2000/svg">
 <g>
  <path d="m355 7.21c-17.5-0.43-33.2 13.5-45.8 26.7-9.66 10.2-15.7 23.3-25.2 34.3-18 20.7-44.5 29.4-69 38.3-10.8 3.92-21.3 11.1-33.6 11.9-11 0.716-18.4 13.7-11.7 22.6 1.13 1.5 2.01 2.76 1.62 4.36-0.192 0.8-0.821 1.46-1.52 1.81-0.695 0.355-1.48 0.526-2.44 0.631-10 1.1-19.8 5.58-30.5 6.08a1.36 1.36 0 0 1-0.082 0c-37.9-0.512-75.7-1.88-114-1.84a1.36 1.36 0 0 1-0.0195 0c-2.52-0.0333-7.23-0.355-10.6 0.271-1.66 0.313-2.86 0.9-3.29 1.46-0.384 0.503-0.432 1.24 0.234 2.65 8.23 3.5 17.9 3.18 27.2 4.54 1 0.0119 1.72 0.033 2.24 0.0938 0.271 0.0315 0.481 0.0478 0.816 0.188 0.168 0.0698 0.404 0.165 0.656 0.502 0.252 0.337 0.33 0.996 0.191 1.36-0.278 0.734-0.57 0.739-0.764 0.855-0.193 0.117-0.373 0.2-0.572 0.291-0.398 0.182-0.868 0.376-1.37 0.604-1.01 0.455-2.13 1.07-2.74 1.68-0.603 0.609-0.781 0.895-0.436 1.72 0.75 1.59 1.79 2.5 3.14 3.12 1.37 0.62 3.09 0.894 4.98 0.963 3.8 0.139 8.19-0.565 11.9-0.0215 7.57 1.1 13.9 1.12 22.1 4.84 14.2 6.49 31.8 1.57 48.4 2.4a1.36 1.36 0 0 1 0.0137 0c14.8 0.892 30 0.178 45 2.79a1.36 1.36 0 0 1 0.299 0.0879c11.2 4.79 23.9 4.37 36.2 6.48a1.36 1.36 0 0 1 0.43 0.15c8.25 4.58 17.6 8.26 27 9.49a1.36 1.36 0 0 1 0.191 0.041c0.31 0.0869 0.633 0.108 1.1 0.23 0.234 0.0612 0.576 0.109 0.973 0.559 0.396 0.45 0.419 1.28 0.266 1.67l0.0254-0.0684c-0.121 0.363-0.339 2.21-0.326 4.08 0.0124 1.88 0.187 3.95 0.49 5.25a1.36 1.36 0 0 1 0.0293 0.178c0.333 3.43 2.56 6.48 5.69 7.94a1.36 1.36 0 0 1 0.578 1.95c-0.409 0.652-0.882 0.703-1.2 0.768-0.317 0.0644-0.6 0.0724-0.906 0.0684-0.613-0.00748-1.3-0.0872-2.04-0.207-1.47-0.24-3.04-0.619-4.13-1.07a1.36 1.36 0 0 1-0.0215-0.00782c-2.3-0.998-4.73-2.16-7.06-2.71-2.32-0.55-4.43-0.526-6.45 0.658-1.18 0.827-2.5 2.24-3.21 3.69-0.666 1.35-0.757 2.57-0.213 3.67 0.443 0.259 0.781 0.402 1.08 0.316 0.376-0.107 0.927-0.492 1.54-1.08 0.618-0.588 1.29-1.34 2.1-1.99s1.87-1.26 3.14-1.23a1.36 1.36 0 0 1 0.0234 0c1.32 0.0549 2.43 0.627 3.21 1.34 0.78 0.715 1.3 1.54 1.79 2.25 0.488 0.718 0.937 1.33 1.41 1.73 0.471 0.394 0.92 0.619 1.72 0.639a1.36 1.36 0 0 1 0.34 0.0508c10.5 3 21.8 1.21 33.2 2.73a1.36 1.36 0 0 1 0.0117 0.00195c8.37 1.2 16.7 2.4 25.1 2.68 0.00195 7e-5 0.00391-6e-5 0.00586 0 1.6-0.0836 3.18 0.145 4.53 0.117 1.37-0.028 2.34-0.259 3.09-1.06 0.39-0.998 1.09-1.83 1.99-2.13 1.12-0.367 2.27-0.245 3.4 0.00977 1.5 0.34 2.85 0.955 4.03 1.6 0.404-1.49 0.423-3.38-0.348-4.64-1.03-0.782-2.3-1.13-3.85-1.28-1.6-0.164-3.42-0.151-5.23-0.516-2.59 0.146-4.59-1.09-6.19-2.25-1.66-1.2-3.02-2.26-4.58-2.47-7.37-0.283-14.8 0.596-22.4 0.912a1.36 1.36 0 0 1-0.822-0.236c-3.38-2.31-8.77-3.61-11.4-8.23-0.663-1.18-0.752-2.51-0.432-3.63 0.32-1.12 0.965-2.06 1.68-2.92 1.43-1.72 3.25-3.22 4.08-4.36 1.46-1.99 3.8-2.35 5.69-2.69 1.88-0.339 3.31-0.675 3.98-1.55a1.36 1.36 0 0 1 0.775-0.5c0.0132-0.0062-0.0701 0.0225-0.0527 0.00586 0.119-0.113 0.326-0.353 0.543-0.639 0.434-0.571 0.909-1.3 1.39-1.88a1.36 1.36 0 0 1 0.174-0.172c0.796-0.665 1.7-1.04 2.58-1.07 0.883-0.0262 1.67 0.276 2.3 0.664 1.25 0.764 2.1 1.87 2.72 2.52 2.31 2.13 2.86 5.39 2.51 8.12a1.36 1.36 0 0 1-1.74 1.13c-1.33-0.398-2.6 0.0703-3.72 1.14-1.13 1.07-1.96 2.73-2.09 4.2a1.36 1.36 0 0 1-0.0117 0.0879c-0.11 0.687 0.0374 0.895 0.0547 0.916 0.0173 0.0205 0.00351 0.0392 0.18 0.0195 0.352-0.0395 1.05-0.462 1.11-1.39a1.36 1.36 0 0 1 0.447-0.934c0.929-0.835 1.77-1.44 2.91-1.21 0.572 0.117 1.02 0.493 1.29 0.836 0.26 0.343 0.398 0.672 0.518 0.984 0.24 0.625 0.397 1.22 0.584 1.64s0.337 0.564 0.449 0.613a1.36 1.36 0 0 1 0.139 0.0703c3.47 2.02 8.07 1.81 12.6 3.24 4.83 0.99 8.73 3.59 12.9 4.58 3.12 0.47 6.48 0.536 9.88 1.4 1.58 0.0106 3.05 0.126 4.29 0.961 0.635 0.43 1.17 1.11 1.39 1.91 0.227 0.802 0.183 1.67-0.0488 2.6l0.00782-0.0273c-0.0519 0.229-0.0776 0.749 0.0215 1.17 0.012 0.0506 0.0484 0.057 0.0625 0.104 0.572-0.532 1.23-1.26 1.6-2.02 0.355-0.727 0.508-2.08 0.908-3.37 0.2-0.647 0.479-1.36 1.18-1.91s1.74-0.652 2.66-0.389a1.36 1.36 0 0 1 0.131 0.0449c0.773 0.31 2.23 0.261 3.8 0.408 0.787 0.0736 1.63 0.215 2.44 0.645 0.81 0.43 1.54 1.2 1.94 2.21l-0.00195-0.00782c0.407 1.01 1.09 2.64 1.73 3.42 0.322 0.392 0.555 0.47 0.545 0.469-0.00906-8.3e-4 0.171-0.0818 0.492-0.434 1.14-1.89 1.02-4.16 0.0156-6.22-1.01-2.07-2.93-3.79-4.98-4.36-6.49-1.44-13.6-1.27-20.4-3.46-4.64-1.18-8.38-3.99-11.8-6.79-0.963-0.799-2.25-1.25-3.71-1.75-1.46-0.501-3.11-1.06-4.48-2.38-3.72-3.57-3.37-9.01-3.31-13.1 0.0197-1.41 7.3e-4 -2.84 0.129-4.14s0.35-2.56 1.26-3.55c0.696-0.799 1.61-2.45 3.89-3.03l-0.127 0.0371c2.35-0.842 7.71-4.3 10.4-6.05 11.1-7.15 18.7-18.4 25.5-29.8 3.53-5.95 5.1-14.1 11.3-19.2 7.62-6.3 13-14.6 16.8-23.7 1.78-4.27 2.96-9.28 6.06-12.2 1.42-1.35 1.49-3.79 1.86-6.39 0.185-1.3 0.457-2.66 1.36-3.81 0.898-1.15 2.43-1.86 4.38-1.91 5.06-0.132 11.6-1.7 15.4-3.73a1.36 1.36 0 0 1 0.0195-0.0117c1.15-0.591 2.33-0.62 3.27-0.369 0.471 0.125 0.902 0.293 1.31 0.713 0.205 0.21 0.42 0.513 0.494 0.941 0.0723 0.419-0.0697 0.905-0.293 1.23-0.454 0.73-1.1 1.4-1.93 2.3-0.854 0.937-1.84 2.03-2.71 3.14-0.865 1.12-1.6 2.26-1.95 3.2-0.266 0.705-0.152 1.08-0.0488 1.47 4.03 0.812 7.78-0.723 11.2-3.58 3.59-3.02 6.61-7.37 8.6-11.1 1.27-4.55 2.51-9.69 2.71-14.5 0.21-4.89-0.614-9.41-3.33-12.9-3.42-4.37-3.99-8.68-4.48-12.5-0.495-3.82-0.911-7.13-3.82-10.5-4.96-5.82-11.4-8.74-19.1-10.3-7.69-1.56-16.6-1.71-26-1.94z" fill="#fff" fill-opacity=".446"/>
  <path d="m353 5.85c-17.5 0.443-32.8 14.2-45.1 27.2-9.87 10.4-15.9 23.6-25.2 34.3-17.7 20.4-44 29-68.5 37.9-11 4-21.4 11-33.2 11.8-12 0.782-20 14.9-12.7 24.8 6.85 8.12 1.51-2.09 1.21-6.54-0.733-10.6 10.3-12 18.6-13 17-2 32.5-10.6 48.8-15.6 22.8-6.95 46-18 59.8-38.1 11.1-16.2 22.2-32.7 37.7-45.2 10-8.03 22.7-9.64 35-9.57 10.7 0.0546 28.6 0.82 28.9 13.1 0.261 11.4 7.34 16.9 7.53 27.6 0.175 9.93-1.68 19.9-10.1 25.7-8.1 5.87-1.16-1.42-1.27-6.54-1.11 1.84-8.94 8.49-6.71 12.1 9.73 2.74 18.1-7.6 22.2-15.4 2.59-9.25 5.15-21.1-0.812-28.8-6.41-8.2-2.02-15.7-8.34-23.1-10.4-12.2-27.2-12.3-46.2-12.7-0.57-0.014-1.14-0.0143-1.7 0zm13.6 14.6c-0.351-0.0087-0.705-0.00777-1.06 0.00195-3.62 0.1-7.25 1.16-10.4 2.84-3.14 1.64-5.88 4.25-7.04 7.66-1.42 4.02-1.71 8.54-0.502 12.7 1.12 3.73 3.67 6.99 7.09 8.87-1.03-2.25-1.84-4.59-2.76-6.88-1.74-4.18-1.89-8.95-0.619-13.3 0.511-1.85 1.62-3.43 3.03-4.68-0.593 1.19-0.955 2.53-0.955 4 0 4.23 2.58 7.84 6.03 9.26 3.45 1.41 7.81 0.66 10.8-2.33 1.87-1.87 3.17-3.55 3.17-6.83 0-3.06-1.49-5.02-3.11-6.71-0.572-0.594-1.18-1.17-1.86-1.68 1.26 0.15 2.51 0.451 3.7 0.938 3.69 1.65 5.61 5.68 6.3 9.47 0.831 3.93-0.747 7.94-3.2 11-2.23 3.15-5.94 4.62-9.43 5.91-2.91 1.12-5.98 1.76-8.88 2.89 1.05 0.493 2.88 0.00207 4.19-0.0488 4.58-0.651 9.29-1.56 13.3-3.98 4.65-3.23 7.78-9 7.06-14.7-0.635-5-3.12-10.2-7.72-12.7-2.25-1.08-4.68-1.6-7.14-1.66zm-3.19 9.38c0.154 0.103 0.672 0.312 1.1 0.752 0.328 0.341 0.542 0.767 0.678 1.04-0.176 0.341-0.431 1.08-0.633 1.29-0.891 0.891-1.53 0.82-2.11 0.582-0.582-0.238-1.06-0.611-1.06-1.85 0-0.107 0.174-0.679 0.686-1.16 0.448-0.425 0.984-0.59 1.34-0.645zm28 43.4c-4.9 0.43-9.78 1.15-14.7 1.02-2.68-0.0693-5.89-1.43-8.14 0.00586-3.92 2.51-3.06 8.29-6.58 11.9-7.56 7.72-8.56 20.2-16.8 27.6-4.2 3.74-9.13 6.9-11.7 12.1-4.83 9.95-10.3 19.6-15.9 29.1-5.37 9.08-13.6 16.9-20.9 24.4-0.577 0.598 0.0154 1.29 1.61 0.717 2.78-0.997 8-4.45 10.7-6.19 11.4-7.35 19.1-18.8 25.9-30.3 3.69-6.23 5.28-14.1 11-18.8 7.83-6.47 13.3-15 17.2-24.2 1.84-4.39 3.12-9.28 5.74-11.8 3.86-3.68-0.0397-11.6 6.7-11.7 5.3-0.138 11.9-1.7 16-3.89zm-72.3 6.48c0.693 2.26 2.29 4.23 3.35 6.35 4.37 8.34 10.5 17.9 7.25 27.6-5.13 15.6-18.6 26.4-31.4 35.8-10.1 7.42-22.5 10.4-34.8 11-9.56 0.466-19 2.24-28.6 1.99-3.59-0.0925-6.39-3.76-9.71-2.78-7.16 2.11-16.5 3.91-21.8-2.62-1.65-2.03-1.7-7.5-5.09-6.54-8.44 2.38-18.4 1.82-24.8-4.39 4.04 8.2 14 12.3 22.8 11.1 3.66 11 17.1 14.4 27.3 11.4 5.46 0.0867 11.3 3.54 17.4 2.37 11.8-1.23 23.6-2.29 35.2-4.6 12.7-2.2 23.2-9.92 32.8-18.1 11.6-10.1 23.3-22.7 24.8-38.7-0.753-11.4-8.13-21-14.7-29.8zm-152 66.8c-10.3 1.24-20 5.59-30.4 6.08-37.9-0.512-75.7-1.88-114-1.84-4.82-0.0636-19.2-1.43-14.7 6.83 8.75 3.91 18.8 3.43 28.2 4.81 8.38 0.0907-5.38 1.23-3.12 6.5 3.53 7.55 14.3 3.86 21.1 4.85 7.67 1.11 13.8 1.13 21.7 4.73 14.8 6.77 32.6 1.7 48.9 2.52 14.9 0.898 30.1 0.194 44.9 2.77 11.6 4.94 24.3 4.49 36.5 6.56 8.36 4.64 17.8 8.39 27.5 9.65-1.56-1.17-14.5-4.73-19.9-7.99-6.08-4.59-13.4-6.32-20.9-6.88-9.05-0.58-17.3-4.59-25.9-6.85-23.4-2.6-47.2-0.899-70.5-3.8-5.61-0.697-14.2 2.71-16.5-5.31-1.7-5.96-25.2-1.66-31.2-2.27 4.16 0.117 22.1-4.84 16.9-7.46-16.2-1.95-32.5-2.54-48.7-4.7 23.1-0.522 46.2-0.0786 69.3 0.184 18.2-0.0803 36.5 1.44 54.7-0.113 10.4-3.06 17.7-1.49 28.1-4.51 1.63-0.473-0.265-3.56-1.99-3.76-0.115-0.0137-0.23-0.0135-0.342 0zm129 34.2c-0.689 0.117-1.6 1.11-1.89 1.86-1.29 3.33-0.871 7.06-0.885 10.6-0.0161 4.23 0.708 9.77 5.18 11.4 3.14 1.16 5.99 2.88 8.52 5.03 7.2 6.13 17.1 6.6 26 7.7 3.02 0.251 6.34 1.18 7.73 4.18 1.01 0.956 1.34 5.36 0.264 4.38-0.99-2.7-2.83-5.85-6.16-5.38-2.51 0.0213-5.71-1.84-7.7 0.303-0.193 1.38-1.55 6.6-2.07 4.42-0.0504-3.66-4.39-3.92-7.08-4.62-3.89-1.09-8.06-0.534-11.8-2.17-4.63-2.22-9.56-3.83-14.6-4.64-2.75-0.612-6.05-0.495-8.21-2.51 0.326-4.1-5.33-4.57-6.84-1.25-0.257 2.21-1.33 1.96-0.854-0.0859 0.822-3.46 4.38-4.56 7.26-4.7 0.311-2.71-0.627-8.68-3.03-10.1-1.89-1.09-2.29-0.0843-0.082 2.2 1.87 1.71 2.4 4.55 2.09 6.96-3.72-1.11-7.21 2.81-7.56 6.51-0.601 3.76 3.86 2.96 4.04-0.16 3.25-2.93 2.09 2.14 4.3 3.1 3.94 2.3 8.72 2.02 13 3.38 4.53 0.913 8.43 3.54 12.9 4.61 3.33 0.509 6.74 0.547 10 1.42 3.06 0.0083 5.22 0.692 4.45 3.8-0.207 0.915-0.109 2.68 1.15 3.47 1.14-0.421 2.41-1.94 3.08-3.32 1.05-2.15 0.53-5.71 3.15-4.96 2.43 0.975 6.24-0.475 7.42 2.5 0.801 1.99 2.66 6.83 5.17 3.73 2.92-4.73-0.736-11.3-5.76-12.7-6.74-1.5-13.8-1.32-20.4-3.44-4.31-1.09-7.91-3.75-11.3-6.53-2.43-2.02-5.9-1.93-8.12-4.06-3.16-3.04-2.95-7.98-2.9-12.1 0.04-2.87-0.0549-5.61 1.03-6.8 0.904-0.989 1.59-1.16 1.05-1.88-0.148-0.198-0.352-0.258-0.582-0.219zm-21.5 13.1c-1.03-0.115-5.67 4.15-6.57 4.16-4.78 0.0668-8.02 3.9-11.1 7.04-2.21 2.29-4.39 6.09-1.85 8.91 3.21 3.55 7.6 5.76 11.5 8.51 5.03 0.0978 10.1-0.379 15.2-0.523 3.29 0.138 7.04-1.01 9.98 0.811 3.25 3.95 8.7 4 13.4 4.52 1.55-0.613 5.04 1.9 2.12 0.908-2.96-1.75-7.66-1.23-8.26 2.54-8.31 0.346-16.6-0.669-24.9-1.81-9.47-1.8-19.1-1.46-28.7-1.94-4.16-0.483-8.91-0.287-12.3-2.88-1.5-1.13-4.37-4.77-1.29-3.13 5.25 2.81 11.4 3.42 17.1 2.46 2.45-0.409 3.29-1.72 1.92-2.77-3.55-2.72-9.08-3.12-11.5-7.34-1.82-4-1.67-8.56-3.36-12.6-0.534 1.6-0.562 7.1 0.131 10.1 0.381 3.93 2.9 7.38 6.47 9.04-0.371 0.591-4.82-0.238-6.6-0.975-4.52-1.97-9.99-4.8-14.8-1.96-2.79 1.92-5.82 6.23-3.78 9.52 3.81 2.82 5.6-3.72 8.92-3.64 4 0.166 3.76 5.85 8.15 5.96 10.9 3.1 22.3 1.28 33.4 2.77 8.38 1.2 16.8 2.41 25.2 2.7 2.86-0.181 6.51 0.961 8.69-1.39 0.546-3.86 7.22-0.873 9.22 0.611 1.31-1.94 1.38-5.44-0.0859-7.61-2.74-2.3-6.71-1.52-10-2.21-4.5 0.436-6.7-4.22-10.8-4.74-7.54-0.299-15.1 0.599-22.6 0.914-3.68-2.51-8.72-3.81-10.9-7.77-2-3.57 3.2-6.66 5.24-9.44 2.15-2.93 7.52-1.41 9.65-4.22 1.11-1.46 3.73-3.79 3.32-4.37-0.0346-0.0491-0.0874-0.076-0.156-0.084z"/>
 </g>
</svg>
