<svg width="512" height="512" version="1.1" viewBox="0 0 512 512" xmlns="http://www.w3.org/2000/svg">
    <path d="m409.95 77.666c-107.64-86.433-264.97-69.241-351.4 38.399-86.433 107.64-69.241 264.97 38.399 351.4 18.956-5.1728 35.807-16.172 48.172-31.443 12.24-15.371 19.341-34.2 20.298-53.826-60.547-48.618-70.218-137.11-21.599-197.67 48.618-60.547 137.11-70.218 197.67-21.599 45.425 36.476 62.212 95.398 47.233 148.12l-38.369-30.809c-18.956 5.1728-35.807 16.172-48.172 31.443-12.24 15.371-19.341 34.2-20.298 53.826l127.51 102.38c14.088-11.267 27.204-24.181 38.97-38.833 86.433-107.64 69.241-264.97-38.398-351.4z" fill="#cb8d00"/>
    <path d="m292.58 223.84a62.49 62.49 0 0 1 9.5994 87.851 62.49 62.49 0 0 1-87.851 9.5994 62.49 62.49 0 0 1-9.5994-87.851 62.49 62.49 0 0 1 87.851-9.5994z" fill="#6400a0"/>
</svg>
